<svg width="92" height="92" viewBox="0 0 92 92" fill="none" xmlns="http://www.w3.org/2000/svg">
<path d="M37.5232 64.1362H54.4733H37.5232ZM46 13.3549V16.9821V13.3549ZM69.0838 22.9163L66.5193 25.4807L69.0838 22.9163ZM78.6452 46H75.0179H78.6452ZM16.9821 46H13.3549H16.9821ZM25.4807 25.4807L22.9163 22.9163L25.4807 25.4807ZM33.1741 58.8259C30.6382 56.2894 28.9114 53.0578 28.212 49.5398C27.5126 46.0219 27.872 42.3756 29.2448 39.0619C30.6176 35.7482 32.9422 32.916 35.9246 30.9234C38.907 28.9307 42.4132 27.8672 46 27.8672C49.5868 27.8672 53.0931 28.9307 56.0755 30.9234C59.0578 32.916 61.3824 35.7482 62.7552 39.0619C64.1281 42.3756 64.4875 46.0219 63.7881 49.5398C63.0887 53.0578 61.3619 56.2894 58.8259 58.8259L56.8382 60.81C55.7018 61.9466 54.8005 63.2959 54.1856 64.7809C53.5707 66.2659 53.2543 67.8574 53.2545 69.4646V71.3907C53.2545 73.3147 52.4902 75.1599 51.1297 76.5204C49.7692 77.8809 47.924 78.6452 46 78.6452C44.076 78.6452 42.2308 77.8809 40.8703 76.5204C39.5099 75.1599 38.7455 73.3147 38.7455 71.3907V69.4646C38.7455 66.2183 37.4542 63.1025 35.1618 60.81L33.1741 58.8259Z" stroke="#EC7979" stroke-width="6.83333" stroke-linecap="round" stroke-linejoin="round"/>
<circle cx="46" cy="46" r="45.5" stroke="#EC7979"/>
</svg>
